<?xml version="1.0" encoding="UTF-8" standalone="no"?>
<!-- Created with Inkscape (http://www.inkscape.org/) -->

<svg
   xmlns:dc="http://purl.org/dc/elements/1.1/"
   xmlns:cc="http://creativecommons.org/ns#"
   xmlns:rdf="http://www.w3.org/1999/02/22-rdf-syntax-ns#"
   xmlns:svg="http://www.w3.org/2000/svg"
   xmlns="http://www.w3.org/2000/svg"
   xmlns:sodipodi="http://sodipodi.sourceforge.net/DTD/sodipodi-0.dtd"
   xmlns:inkscape="http://www.inkscape.org/namespaces/inkscape"
   width="105"
   height="80"
   id="svg2"
   version="1.1"
   inkscape:version="0.48.4 r9939"
   sodipodi:docname="avatar-default2.svg"
   inkscape:export-filename="/home/tom/Dropbox/pangea/client/images/avatar-default2.png"
   inkscape:export-xdpi="90"
   inkscape:export-ydpi="90">
  <defs
     id="defs4">
    <linearGradient
       id="linearGradient3759">
      <stop
         style="stop-color:#5c5c5c;stop-opacity:1;"
         offset="0"
         id="stop3761" />
      <stop
         id="stop3767"
         offset="1"
         style="stop-color:#5a6a90;stop-opacity:0.49803922;" />
    </linearGradient>
    <inkscape:perspective
       sodipodi:type="inkscape:persp3d"
       inkscape:vp_x="0 : 526.18109 : 1"
       inkscape:vp_y="0 : 1000 : 0"
       inkscape:vp_z="744.09448 : 526.18109 : 1"
       inkscape:persp3d-origin="372.04724 : 350.78739 : 1"
       id="perspective10" />
    <inkscape:perspective
       id="perspective13"
       inkscape:persp3d-origin="376.56 : 223.84001 : 1"
       inkscape:vp_z="753.12 : 335.76001 : 1"
       inkscape:vp_y="0 : 1000 : 0"
       inkscape:vp_x="0 : 335.76001 : 1"
       sodipodi:type="inkscape:persp3d" />
    <inkscape:perspective
       id="perspective12"
       inkscape:persp3d-origin="372.04724 : 350.78739 : 1"
       inkscape:vp_z="744.09448 : 526.18109 : 1"
       inkscape:vp_y="0 : 1000 : 0"
       inkscape:vp_x="0 : 526.18109 : 1"
       sodipodi:type="inkscape:persp3d" />
    <inkscape:perspective
       id="perspective2897"
       inkscape:persp3d-origin="0.5 : 0.33333333 : 1"
       inkscape:vp_z="1 : 0.5 : 1"
       inkscape:vp_y="0 : 1000 : 0"
       inkscape:vp_x="0 : 0.5 : 1"
       sodipodi:type="inkscape:persp3d" />
    <inkscape:perspective
       id="perspective2911"
       inkscape:persp3d-origin="0.5 : 0.33333333 : 1"
       inkscape:vp_z="1 : 0.5 : 1"
       inkscape:vp_y="0 : 1000 : 0"
       inkscape:vp_x="0 : 0.5 : 1"
       sodipodi:type="inkscape:persp3d" />
    <inkscape:perspective
       id="perspective2948"
       inkscape:persp3d-origin="0.5 : 0.33333333 : 1"
       inkscape:vp_z="1 : 0.5 : 1"
       inkscape:vp_y="0 : 1000 : 0"
       inkscape:vp_x="0 : 0.5 : 1"
       sodipodi:type="inkscape:persp3d" />
  </defs>
  <sodipodi:namedview
     id="base"
     pagecolor="#ffffff"
     bordercolor="#666666"
     borderopacity="1.0"
     inkscape:pageopacity="0.0"
     inkscape:pageshadow="2"
     inkscape:zoom="1.8279243"
     inkscape:cx="63.874316"
     inkscape:cy="105.28793"
     inkscape:document-units="px"
     inkscape:current-layer="layer1"
     showgrid="false"
     inkscape:window-width="1366"
     inkscape:window-height="744"
     inkscape:window-x="0"
     inkscape:window-y="24"
     inkscape:window-maximized="1"
     showguides="true"
     inkscape:guide-bbox="true"
     showborder="true"
     inkscape:snap-object-midpoints="true"
     inkscape:object-paths="true"
     inkscape:snap-center="true"
     inkscape:snap-global="true"
     fit-margin-top="0"
     fit-margin-left="0"
     fit-margin-right="0"
     fit-margin-bottom="0"
     borderlayer="false" />
  <metadata
     id="metadata7">
    <rdf:RDF>
      <cc:Work
         rdf:about="">
        <dc:format>image/svg+xml</dc:format>
        <dc:type
           rdf:resource="http://purl.org/dc/dcmitype/StillImage" />
        <dc:title></dc:title>
      </cc:Work>
    </rdf:RDF>
  </metadata>
  <g
     inkscape:label="Layer 1"
     inkscape:groupmode="layer"
     id="layer1"
     transform="translate(1424.5704,-417.44363)">
    <rect
       style="fill:#ffd8d8;fill-opacity:1;stroke:none"
       id="rect2989"
       width="110"
       height="90"
       x="-1256.6204"
       y="299.12405" />
    <path
       style="fill:#000000;stroke:none"
       d="m -1372.0686,460.18739 c 0.5875,0 0.6489,-0.0406 1.7188,1.33913 0.6262,0.80766 1.9804,2.52986 2.6987,3.56477 l 10.7583,-0.0396 c 1.3405,-0.0606 1.4884,-0.21481 2.0432,-0.61294 1.014,-0.72779 1.9602,-1.95846 4.1807,-5.44015 0.6709,-1.05191 1.5271,-2.37917 1.9028,-2.94879 0.5709,-0.91731 0.3622,-1.06552 1.8693,-1.36613 -1.0914,2.70628 -2.4869,5.89515 -3.4214,7.31248 -1.8384,2.78813 -4.7668,5.77728 -10.5694,7.64183 4.5136,-0.78244 5.9432,-2.15635 8.9502,-4.6107 -2.0433,4.21768 -4.8919,8.03041 -7.526,11.88051 5.9207,-6.29846 11.598,-13.2801 14.6311,-21.47702 0.5255,-1.60641 1.1219,-3.80895 1.052,-3.87886 -1.1154,1.24887 -2.4713,2.6353 -5.3487,2.7018 -4.3534,0.1006 -7.7059,-1.22822 -10.8498,-3.60441 -0.3312,0.24138 -0.7338,0.45231 -0.741,0.94531 -0.01,0.46266 0.5009,0.97287 1.4943,1.53386 1.6308,0.92118 5.8173,2.00957 7.7271,2.00957 0.2419,0 0.4391,0.0227 0.4391,0.0518 0,0.0291 -1.1222,1.45614 -2.4944,3.16834 -2.1058,2.62774 -2.5508,3.13087 -2.8542,3.23543 -0.704,0.24261 -4.6372,0.0824 -6.7513,-0.27445 -1.0139,-0.17114 -1.467,-0.35903 -2.0096,-0.83554 -0.9834,-1.00364 -1.7314,-2.24281 -2.7354,-3.19883 -1.1134,0.4202 -2.2962,0.85701 -4.1655,0.87822 -1.4586,0.0165 -2.8204,-0.37659 -4.1655,-0.87822 -1.0041,0.95602 -1.752,2.19519 -2.7353,3.19883 -0.5428,0.47651 -0.9958,0.6644 -2.0096,0.83554 -2.1142,0.35689 -6.0474,0.51706 -6.7514,0.27445 -0.3034,-0.10456 -0.7484,-0.60769 -2.8542,-3.23543 -1.3722,-1.7122 -2.4945,-3.13926 -2.4945,-3.16834 0,-0.0291 0.1973,-0.0518 0.4392,-0.0518 1.9099,0 6.0962,-1.08839 7.7272,-2.00957 0.9933,-0.56099 1.5009,-1.0712 1.4942,-1.53386 -0.01,-0.493 -0.4098,-0.70393 -0.741,-0.94531 -3.1439,2.37619 -6.4963,3.70501 -10.8499,3.60441 -2.8773,-0.0666 -4.2332,-1.45293 -5.3485,-2.7018 -0.071,0.0699 0.5265,2.27245 1.0519,3.87886 3.0331,8.19692 8.7105,15.17856 14.6311,21.47702 -2.634,-3.8501 -5.4828,-7.66283 -7.526,-11.88051 3.007,2.45435 4.4366,3.82826 8.9501,4.6107 -5.8025,-1.86455 -8.7309,-4.8537 -10.5693,-7.64183 -0.9345,-1.41733 -2.33,-4.6062 -3.4215,-7.31248 1.5072,0.30061 1.2985,0.44882 1.8695,1.36613 0.3756,0.56962 1.2318,1.89688 1.9027,2.94879 2.2206,3.48169 3.1668,4.71236 4.1807,5.44015 0.5548,0.39813 0.7027,0.55236 2.0432,0.61294 l 10.7582,0.0396 c 0.7183,-1.03491 2.0726,-2.75711 2.6989,-3.56477 1.0697,-1.37977 1.1335,-1.33913 1.7209,-1.33913 z m -17.9651,-41.08429 c -3.7564,0.0375 -7.1607,2.15745 -8.8769,7.82479 3.0454,-1.61238 6.9744,-1.57881 10.3466,-0.42081 4.4964,1.54405 8.3428,5.08577 11.6671,9.70017 -0.3698,-2.67797 -1.4831,-5.45774 -2.1925,-6.89472 0.6556,0.10658 1.5803,0.42625 1.9882,-0.0762 0.4405,-0.54265 0.095,-1.09393 -0.3416,-1.5491 -3.5183,-3.67532 -8.2629,-6.06894 -13.3929,-6.27264 3.3143,-0.15334 7.4912,0.39644 11.2065,1.88149 -3.0379,-2.42568 -6.8759,-4.22814 -10.4045,-4.19294 z m 35.9282,0 c -3.5288,-0.0352 -7.3668,1.76726 -10.4047,4.19295 3.7153,-1.48505 7.8922,-2.03484 11.2066,-1.8815 -5.1301,0.20371 -9.8746,2.59733 -13.393,6.27265 -0.4358,0.45516 -0.782,1.00644 -0.3416,1.5491 0.4079,0.50248 1.3326,0.18281 1.9883,0.0762 -0.7096,1.43698 -1.8228,4.21675 -2.1926,6.89472 3.3243,-4.6144 7.1707,-8.15613 11.6671,-9.70017 3.3722,-1.15801 7.3012,-1.19158 10.3467,0.42081 -1.7163,-5.66735 -5.1206,-7.78732 -8.8768,-7.82479 z m -33.7572,13.57598 c -1.6806,0.0165 -3.0898,0.26604 -4.1533,0.72881 -2.1001,0.91396 -3.389,4.42046 -5.2724,4.60462 -1.6918,0.16543 -2.6652,-2.17999 -3.3818,-3.42754 0.4476,1.41487 1.1994,2.86986 2.1499,3.8941 -0.9711,0.61794 -2.0104,1.2419 -2.72,2.15289 1.2602,-0.86054 2.5208,-1.70985 3.7112,-1.57351 -1.4036,0.77089 -3.3881,1.84284 -4.3486,3.58611 1.6703,-1.64259 3.6888,-3.13547 6.1202,-3.00367 0.7024,0.0381 0.9131,0.0961 1.7625,0.50012 2.1466,1.23012 4.495,1.26051 6.8704,1.235 l 0,-1.45457 c -1.6886,-0.005 -3.3741,-0.21149 -5.0285,-0.54279 -0.6957,-0.17685 -1.8929,-0.74539 -2.1346,-1.01241 -0.1643,-0.18159 -0.1621,-0.21135 0.049,-0.71051 0.5473,-1.29507 1.4356,-2.32806 2.5492,-3.02502 1.3621,-0.85238 2.9819,-1.00821 4.5497,-0.96361 0.01,10e-5 0.01,-2e-4 0.015,0 l 0,-0.97582 c -0.01,-2.8e-4 -0.023,-0.002 -0.031,-0.003 -0.1248,-0.003 -0.2469,-0.008 -0.369,-0.01 -0.1144,-7.8e-4 -0.2264,-7.8e-4 -0.3385,0 l 0,-10e-6 z m 31.2474,0 c -0.1221,7.9e-4 -0.2442,0.006 -0.3689,0.01 -0.01,2e-4 -0.023,0.002 -0.031,0.003 l 0,0.97582 c 0.01,-1.9e-4 0.011,1.1e-4 0.014,0 1.5678,-0.0446 3.1876,0.11124 4.5496,0.96362 1.1138,0.69695 2.0021,1.72994 2.5494,3.02501 0.2109,0.49917 0.2131,0.52893 0.049,0.71052 -0.2416,0.26701 -1.439,0.83555 -2.1345,1.0124 -1.6545,0.3313 -3.3399,0.53852 -5.0285,0.54279 l 0,1.45458 c 2.3753,0.0254 4.7237,-0.005 6.8702,-1.23502 0.8495,-0.40397 1.0603,-0.46204 1.7626,-0.50011 2.4314,-0.13179 4.45,1.36109 6.1203,3.00368 -0.9607,-1.74327 -2.9451,-2.81523 -4.3485,-3.58611 1.1903,-0.13634 2.4507,0.71297 3.711,1.5735 -0.7095,-0.91098 -1.7489,-1.53495 -2.72,-2.15289 0.9506,-1.02424 1.7023,-2.47922 2.1499,-3.8941 -0.7166,1.24755 -1.69,3.59297 -3.3818,3.42754 -1.8834,-0.18415 -3.1723,-3.69066 -5.2725,-4.60462 -1.0634,-0.46276 -2.4725,-0.71219 -4.1534,-0.7288 -0.1119,-7.8e-4 -0.2239,-7.8e-4 -0.3384,0 l 0,0 z m -29.4268,0.14638 0,0.94836 c 2.5389,0.40228 5.445,1.84693 6.114,3.19274 -1.9777,-1.37532 -4.2677,-2.48829 -6.7117,-2.45173 -1.5866,0.0238 -3.5693,0.42932 -5.1169,1.28685 -0.781,0.43277 -1.8849,1.40382 -1.9029,1.70462 -0.071,1.18191 5.2221,1.82905 7.1235,1.74731 2.2268,-0.0949 4.4708,-0.19928 6.4525,-1.17097 -1.1284,1.52942 -3.7959,1.75327 -5.9585,1.81745 l 0,1.44847 c 3.3931,-0.19205 7.5622,-1.7285 7.5472,-3.71723 -0.023,-3.04525 -5.1453,-4.40027 -7.5472,-4.80587 z m 27.9448,0 c -2.4019,0.4056 -7.5244,1.76062 -7.5473,4.80587 -0.015,1.98873 4.1542,3.52518 7.5473,3.71723 l 0,-1.44847 c -2.1626,-0.0642 -4.8301,-0.28803 -5.9585,-1.81745 1.9816,0.97169 4.2257,1.07611 6.4525,1.17097 1.9014,0.0817 7.1941,-0.5654 7.1235,-1.74731 -0.018,-0.3008 -1.1219,-1.27185 -1.9029,-1.70462 -1.5476,-0.85753 -3.5303,-1.26312 -5.1168,-1.28685 -2.4441,-0.0366 -4.734,1.07641 -6.7119,2.45173 0.6691,-1.34581 3.5752,-2.79046 6.1141,-3.19274 l 0,-0.94836 z m -17.7537,1.57654 c -0.011,5.91842 -0.9322,10.047 -4.6839,14.58839 -0.8321,1.00736 -1.8187,2.10125 -1.8631,3.47633 -0.034,1.03394 0.4502,1.96934 1.0734,2.86645 -0.364,-0.88121 -0.6056,-1.7427 -0.5032,-2.70179 0.09,-0.84193 0.6812,-1.43054 2.4059,-3.12869 1.6594,-1.63373 1.9717,-2.02336 2.2719,-1.69853 0.1328,0.14369 0.113,0.97215 -0.074,2.47614 -0.2682,2.16633 -0.1754,3.65033 0.2866,4.56496 0.4744,0.93917 1.7232,1.7062 3.4214,2.1041 0.3663,0.0858 0.8937,0.10977 1.4454,0.10977 0.5518,0 1.0792,-0.0239 1.4455,-0.10977 1.6983,-0.3979 2.9471,-1.16493 3.4214,-2.1041 0.462,-0.91463 0.5549,-2.39863 0.2867,-4.56496 -0.1862,-1.50399 -0.206,-2.33245 -0.073,-2.47614 0.3001,-0.32483 0.6125,0.0648 2.2718,1.69853 1.7248,1.69815 2.3162,2.28676 2.406,3.12869 0.1022,0.95909 -0.1392,1.82058 -0.5031,2.70179 0.6231,-0.89711 1.1068,-1.83251 1.0734,-2.86645 -0.045,-1.37508 -1.0311,-2.46897 -1.8633,-3.47633 -3.7516,-4.54139 -4.6737,-8.66997 -4.6839,-14.58839 -0.65,3.10811 -0.5585,7.75449 -0.439,11.75854 0.076,2.52729 0.2757,4.18372 0.5427,5.71459 0.253,1.45111 0.2162,2.55523 -0.2928,2.97013 -0.9645,0.78626 -2.3112,1.06933 -3.5921,1.07034 -1.2811,7.9e-4 -2.6273,-0.28094 -3.5923,-1.07034 -0.5083,-0.41582 -0.5457,-1.51902 -0.2926,-2.97013 0.2669,-1.53087 0.4673,-3.1873 0.5427,-5.71459 0.1194,-4.00405 0.2109,-8.65043 -0.4391,-11.75854 z m -3.1561,20.7726 c -0.1394,0.005 -0.2701,0.0247 -0.3873,0.061 -0.2206,0.0685 -0.2399,0.41271 0.036,0.7776 0.3151,0.37444 0.6515,0.55288 1.3783,0.73186 0.7114,0.17517 1.1035,0.18142 1.1497,-0.0457 0.1748,-0.85835 -1.2021,-1.55787 -2.1773,-1.5247 z m 13.8748,0 c -0.9752,-0.0332 -2.3522,0.66635 -2.1773,1.5247 0.046,0.22717 0.4383,0.22091 1.1496,0.0457 0.7269,-0.17898 1.0634,-0.35741 1.3784,-0.73185 0.2765,-0.36491 0.2573,-0.70923 0.036,-0.7776 -0.1172,-0.0362 -0.248,-0.0563 -0.3873,-0.061 z m -14.6372,10.31311 c -0.1588,0.14455 -0.4021,0.27968 -0.2775,0.47571 0.1357,0.21326 1.4727,0.54085 3.3604,0.63123 3.0687,0.14691 6.1647,0.20312 9.2337,0 1.8869,-0.12489 3.2248,-0.41797 3.3605,-0.63123 0.1247,-0.19603 -0.1187,-0.33116 -0.2775,-0.47571 l -15.3996,0 z m 3.8636,5.84878 c 1.1752,1.37952 1.8479,2.09828 1.8419,3.15004 -0.012,1.97219 -0.8656,2.20608 -0.7776,5.34561 0.071,2.52101 0.4789,4.16355 0.7135,5.76341 0.5583,3.80709 1.2101,3.86664 2.0584,3.86664 0.8484,0 1.5002,-0.0596 2.0584,-3.86664 0.2345,-1.59986 0.6429,-3.2424 0.7135,-5.76341 0.088,-3.13953 -0.7664,-3.37342 -0.7776,-5.34561 -0.01,-1.05176 0.6667,-1.77052 1.8419,-3.15004 l -7.6724,0 z"
       id="path2954"
       sodipodi:nodetypes="csssccscccccscsssssssccccscssssssccsccccsccssccscszccsccssccccccssccscccsscccccsccccssssccsscccccssssccccscccccsssccccsssccccsccsccccsssccccsccssssssssssssscsscsssssssccscssccsccscccccssccccscszccccc"
       inkscape:connector-curvature="0"
       inkscape:export-xdpi="90"
       inkscape:export-ydpi="90" />
  </g>
</svg>
